<svg width="1440" height="880" viewBox="0 0 1440 880" fill="none" xmlns="http://www.w3.org/2000/svg">
<circle cx="1240" cy="647" r="154" stroke="#D7E8FB" stroke-width="4"/>
<rect x="824.513" y="145.297" width="348" height="382" transform="rotate(-17.6961 824.513 145.297)" stroke="#D7E8FB" stroke-width="4"/>
<mask id="path-3-inside-1_701_10135" fill="white">
<path fill-rule="evenodd" clip-rule="evenodd" d="M900.595 488.043C909.557 458.583 892.941 427.437 863.481 418.475L767.341 389.227C737.881 380.265 706.735 396.881 697.773 426.341V426.341C688.811 455.8 657.623 472.404 628.164 463.442V463.442C598.66 454.466 567.426 471.095 558.45 500.599L529.252 596.578C520.276 626.082 536.917 657.276 566.421 666.252V666.252C595.925 675.227 612.508 706.615 603.532 736.119V736.119C594.491 765.838 611.195 797.454 640.914 806.495L736.115 835.457C765.833 844.498 797.267 827.695 806.308 797.976V797.976C815.335 768.302 846.721 751.524 876.395 760.551V760.551C906.069 769.579 937.443 752.841 946.47 723.167L975.481 627.804C984.509 598.13 967.576 566.697 937.902 557.67V557.67C908.443 548.708 891.633 517.502 900.595 488.043V488.043Z"/>
</mask>
<path d="M736.115 835.457L737.279 831.63L736.115 835.457ZM766.176 393.054L862.317 422.302L864.645 414.648L768.505 385.4L766.176 393.054ZM533.078 597.742L562.277 501.764L554.623 499.435L525.425 595.414L533.078 597.742ZM737.279 831.63L642.078 802.668L639.749 810.322L734.95 839.284L737.279 831.63ZM971.654 626.64L942.643 722.003L950.297 724.331L979.308 628.968L971.654 626.64ZM939.066 553.843C911.702 545.518 896.108 516.535 904.422 489.207L896.768 486.879C887.157 518.469 905.183 551.897 936.738 561.497L939.066 553.843ZM979.308 628.968C988.984 597.163 970.836 563.508 939.066 553.843L936.738 561.497C964.316 569.886 980.033 599.097 971.654 626.64L979.308 628.968ZM875.231 764.378C907.018 774.048 940.627 756.119 950.297 724.331L942.643 722.003C934.259 749.564 905.12 765.109 877.559 756.724L875.231 764.378ZM810.134 799.14C818.52 771.576 847.674 755.995 875.231 764.378L877.559 756.724C845.768 747.053 812.15 765.028 802.481 796.812L810.134 799.14ZM734.95 839.284C766.786 848.969 800.452 830.968 810.134 799.14L802.481 796.812C794.082 824.421 764.88 840.027 737.279 831.63L734.95 839.284ZM599.706 734.955C590.027 766.769 607.899 800.632 639.749 810.322L642.078 802.668C614.49 794.276 598.956 764.907 607.359 737.283L599.706 734.955ZM565.257 670.079C592.63 678.406 608.044 707.546 599.706 734.955L607.359 737.283C616.972 705.684 599.221 672.049 567.586 662.425L565.257 670.079ZM525.425 595.414C515.806 627.031 533.64 660.46 565.257 670.079L567.586 662.425C540.195 654.092 524.746 625.133 533.078 597.742L525.425 595.414ZM629.328 459.615C597.715 449.998 564.243 467.814 554.623 499.435L562.277 501.764C570.608 474.377 599.606 458.935 627 467.269L629.328 459.615ZM693.946 425.176C685.628 452.518 656.678 467.935 629.328 459.615L627 467.269C658.569 476.873 691.993 459.081 701.599 427.505L693.946 425.176ZM862.317 422.302C889.663 430.621 905.087 459.533 896.768 486.879L904.422 489.207C914.027 457.634 896.218 424.253 864.645 414.648L862.317 422.302ZM768.505 385.4C736.932 375.795 703.551 393.604 693.946 425.176L701.599 427.505C709.919 400.159 738.831 384.735 766.176 393.054L768.505 385.4Z" fill="#D7E8FB" mask="url(#path-3-inside-1_701_10135)"/>
<path d="M407.264 51.3882L417.301 211.348C418.034 223.022 426.2 232.897 437.529 235.807L592.761 275.692C614.341 281.237 616.218 311.156 595.501 319.355L446.472 378.331C435.595 382.635 428.728 393.453 429.46 405.127L439.497 565.087C440.892 587.324 413.017 598.355 398.818 581.185L296.676 457.674C289.221 448.66 276.81 445.471 265.934 449.775L116.905 508.751C96.1876 516.95 77.0826 493.848 89.0243 475.038L174.926 339.728C181.196 329.853 180.393 317.064 172.939 308.05L70.7968 184.54C56.5975 167.37 72.665 142.061 94.2447 147.605L249.477 187.49C260.806 190.401 272.721 185.686 278.99 175.811L364.892 40.5011C376.834 21.691 405.869 29.1512 407.264 51.3882Z" stroke="#D7E8FB" stroke-width="4"/>
</svg>
