<svg width="146" height="24" viewBox="0 0 146 24" fill="none" xmlns="http://www.w3.org/2000/svg">
<path d="M31.8887 0.922852V18.9929H34.9939V3.36685H40.5372V18.9929H43.6425V0.922852H31.8887Z" fill="black"/>
<path d="M49.022 5.91485H46.199V22.7629H49.253V17.4589C50.0229 18.6289 51.1521 19.2529 52.4609 19.2529C55.4379 19.2529 57.4909 16.8349 57.4909 12.4409C57.4909 8.07285 55.4892 5.65485 52.6149 5.65485C51.1777 5.65485 49.9972 6.33085 49.176 7.60485L49.022 5.91485ZM51.691 16.8089C50.0742 16.8089 49.253 15.4829 49.253 12.4669C49.253 9.42485 50.1255 8.09885 51.845 8.09885C53.5131 8.09885 54.3343 9.42485 54.3343 12.4409C54.3343 15.4829 53.4618 16.8089 51.691 16.8089Z" fill="black"/>
<path d="M69.0561 10.0749C69.0561 6.90285 67.465 5.70685 64.2314 5.70685C62.204 5.70685 60.6128 6.35685 59.689 6.90285V9.47685C60.5102 8.85285 62.3066 8.17685 63.8721 8.17685C65.3349 8.17685 66.0022 8.69685 66.0022 10.1009V10.8289H65.5145C60.8438 10.8289 58.7651 12.3889 58.7651 15.0409C58.7651 17.6929 60.3562 19.1749 62.7172 19.1749C64.5137 19.1749 65.2836 18.5769 65.8738 17.9529H66.0022C66.0278 18.2909 66.1305 18.7329 66.2331 18.9929H69.2101C69.1074 17.9269 69.0561 16.8609 69.0561 15.7949V10.0749ZM66.0022 15.8729C65.6172 16.4449 64.8986 16.9129 63.8208 16.9129C62.5376 16.9129 61.896 16.1849 61.896 15.0669C61.896 13.5849 62.9482 13.0389 65.5659 13.0389H66.0022V15.8729Z" fill="black"/>
<path d="M79.0823 18.9929H82.5468L77.6451 12.0509L81.9566 5.91485H78.877L74.5655 12.0509V5.91485H71.5116V18.9929H74.5655V12.6749L79.0823 18.9929Z" fill="black"/>
<path d="M92.7855 8.35885V5.91485H82.5458V8.35885H86.1387V18.9929H89.1926V8.35885H92.7855Z" fill="black"/>
<path d="M94.5936 5.91485V18.9929H97.3139L101.985 10.9069V18.9929H104.936V5.91485H102.216L97.5449 14.0009V5.91485H94.5936Z" fill="black"/>
<path d="M115.071 18.9929H118.536L113.634 12.0509L117.945 5.91485H114.866L110.554 12.0509V5.91485H107.5V18.9929H110.554V12.6749L115.071 18.9929Z" fill="black"/>
<path d="M121.223 23.0229C124.071 23.0229 125.124 20.9689 125.996 18.2909L130.025 5.91485H127.074L124.225 15.7429L121.377 5.91485H118.169L122.609 19.5649C122.275 20.1889 121.787 20.5789 120.94 20.5789C120.376 20.5789 119.888 20.3969 119.555 20.0589V22.5809C119.555 22.5809 120.017 23.0229 121.223 23.0229Z" fill="black"/>
<path d="M142.194 18.9929H145.171L145.119 5.91485H140.936L138.139 14.6249L135.624 5.91485H131.184V18.9929H133.776V9.21685L136.573 18.9929H139.063L142.194 9.21685V18.9929Z" fill="black"/>
<path fill-rule="evenodd" clip-rule="evenodd" d="M11.8446 24C18.3863 24 23.6893 18.6274 23.6893 12C23.6893 5.37258 18.3863 0 11.8446 0C5.30303 0 0 5.37258 0 12C0 18.6274 5.30303 24 11.8446 24ZM12.2753 6.97336H13.3331V18.8775H15.7008V5.11055H12.2627C8.79938 5.11055 6.97328 6.92232 6.97328 9.57619C6.97328 11.6942 7.96819 12.9446 9.74391 14.2332L6.65843 18.8902H9.22757L12.6657 13.6846L11.4693 12.868C10.021 11.8728 9.31572 11.0945 9.31572 9.43584C9.31572 7.96856 10.3358 6.97336 12.2753 6.97336Z" fill="black"/>
</svg>
