<svg width="201" height="36" viewBox="0 0 201 36" fill="none" xmlns="http://www.w3.org/2000/svg">
<path fill-rule="evenodd" clip-rule="evenodd" d="M17.3382 35.1035C26.9062 35.1035 34.6627 27.2453 34.6627 17.5517C34.6627 7.85818 26.9062 0 17.3382 0C7.77011 0 0.0136719 7.85818 0.0136719 17.5517C0.0136719 27.2453 7.77011 35.1035 17.3382 35.1035ZM17.9675 10.1993H19.5148V27.6108H22.9778V7.47469H17.9491C12.8835 7.47469 10.2126 10.1247 10.2126 14.0063C10.2126 17.1042 11.6678 18.9331 14.2651 20.8179L9.75211 27.6295H13.5098L18.5386 20.0154L16.7886 18.8211C14.6703 17.3655 13.6388 16.2271 13.6388 13.8011C13.6388 11.6549 15.1308 10.1993 17.9675 10.1993Z" fill="black"/>
<path d="M44.6621 4.62109V29.5452H48.9452V7.99213H56.5912V29.5452H60.8743V4.62109H44.6621Z" fill="black"/>
<path d="M68.2943 11.5066H64.4005V34.7452H68.6129V27.4294C69.6748 29.0432 71.2323 29.9039 73.0376 29.9039C77.1437 29.9039 79.9756 26.5687 79.9756 20.508C79.9756 14.4832 77.2145 11.148 73.25 11.148C71.2677 11.148 69.6394 12.0804 68.5067 13.8376L68.2943 11.5066ZM71.9757 26.5328C69.7456 26.5328 68.6129 24.7039 68.6129 20.5439C68.6129 16.348 69.8164 14.519 72.188 14.519C74.4889 14.519 75.6216 16.348 75.6216 20.508C75.6216 24.7039 74.4181 26.5328 71.9757 26.5328Z" fill="black"/>
<path d="M95.9275 17.2445C95.9275 12.8694 93.7329 11.2197 89.2727 11.2197C86.4763 11.2197 84.2817 12.1163 83.0073 12.8694V16.4197C84.1401 15.559 86.6179 14.6266 88.7772 14.6266C90.7948 14.6266 91.7152 15.3439 91.7152 17.2804V18.2845H91.0426C84.6002 18.2845 81.733 20.4363 81.733 24.0942C81.733 27.7521 83.9277 29.7963 87.1843 29.7963C89.6621 29.7963 90.7241 28.9714 91.5382 28.1108H91.7152C91.7506 28.577 91.8922 29.1866 92.0338 29.5452H96.1399C95.9983 28.0749 95.9275 26.6045 95.9275 25.1342V17.2445ZM91.7152 25.2418C91.1842 26.0308 90.1931 26.6763 88.7064 26.6763C86.9365 26.6763 86.0515 25.6721 86.0515 24.1301C86.0515 22.0859 87.5029 21.3328 91.1134 21.3328H91.7152V25.2418Z" fill="black"/>
<path d="M109.757 29.5452H114.535L107.774 19.9701L113.721 11.5066H109.474L103.527 19.9701V11.5066H99.3144V29.5452H103.527V20.8308L109.757 29.5452Z" fill="black"/>
<path d="M128.658 14.8776V11.5066H114.534V14.8776H119.49V29.5452H123.702V14.8776H128.658Z" fill="black"/>
<path d="M131.152 11.5066V29.5452H134.904L141.346 18.3921V29.5452H145.417V11.5066H141.665L135.222 22.6597V11.5066H131.152Z" fill="black"/>
<path d="M159.397 29.5452H164.175L157.414 19.9701L163.361 11.5066H159.113L153.167 19.9701V11.5066H148.954V29.5452H153.167V20.8308L159.397 29.5452Z" fill="black"/>
<path d="M167.882 35.1039C171.811 35.1039 173.262 32.2708 174.466 28.577L180.023 11.5066H175.952L172.023 25.0625L168.094 11.5066H163.669L169.793 30.3342C169.333 31.1949 168.66 31.7328 167.492 31.7328C166.713 31.7328 166.041 31.4818 165.581 31.0156V34.4942C165.581 34.4942 166.218 35.1039 167.882 35.1039Z" fill="black"/>
<path d="M196.807 29.5452H200.913L200.842 11.5066H195.072L191.214 23.5204L187.745 11.5066H181.621V29.5452H185.196V16.0611L189.055 29.5452H192.488L196.807 16.0611V29.5452Z" fill="black"/>
</svg>
